<svg xmlns="http://www.w3.org/2000/svg" xmlns:xlink="http://www.w3.org/1999/xlink" width="388" zoomAndPan="magnify" viewBox="0 0 291 241.499998" height="322" preserveAspectRatio="xMidYMid meet" version="1.0"><defs><clipPath id="id1"><path d="M 0.300781 0 L 290.699219 0 L 290.699219 241 L 0.300781 241 Z M 0.300781 0 " clip-rule="nonzero"/></clipPath><clipPath id="id2"><path d="M 0.300781 0 L 241 0 L 241 238 L 0.300781 238 Z M 0.300781 0 " clip-rule="nonzero"/></clipPath><clipPath id="id3"><path d="M 50 0 L 290.699219 0 L 290.699219 238 L 50 238 Z M 50 0 " clip-rule="nonzero"/></clipPath></defs><g clip-path="url(#id1)"><path fill="#ffffff" d="M 0.300781 0 L 290.699219 0 L 290.699219 248.484375 L 0.300781 248.484375 Z M 0.300781 0 " fill-opacity="1" fill-rule="nonzero"/><path fill="#ffffff" d="M 0.300781 0 L 290.699219 0 L 290.699219 241 L 0.300781 241 Z M 0.300781 0 " fill-opacity="1" fill-rule="nonzero"/><path fill="#ffffff" d="M 0.300781 0 L 290.699219 0 L 290.699219 241 L 0.300781 241 Z M 0.300781 0 " fill-opacity="1" fill-rule="nonzero"/></g><path stroke-linecap="butt" transform="matrix(-20.95661, -0.000000000000002566, 0.000000000000002566, -20.95661, 205.086351, 155.314432)" fill="none" stroke-linejoin="miter" d="M 0.0000197262 0.0000921744 L 2.857113 0.0000921744 " stroke="#ffffff" stroke-width="1" stroke-opacity="1" stroke-miterlimit="4"/><path stroke-linecap="butt" transform="matrix(20.95661, 0, 0, 20.95661, 111.893667, 85.686589)" fill="none" stroke-linejoin="miter" d="M 0.0000412499 0.000043468 L 2.857135 0.000043468 " stroke="#ffffff" stroke-width="1" stroke-opacity="1" stroke-miterlimit="4"/><path stroke-linecap="butt" transform="matrix(0.000000000000001283, -20.953906, 20.95661, 0.000000000000001283, 111.888534, 165.787604)" fill="none" stroke-linejoin="miter" d="M -0.000069589 -0.0000866298 L 4.322476 -0.0000866298 " stroke="#ffffff" stroke-width="1" stroke-opacity="1" stroke-miterlimit="4"/><path stroke-linecap="butt" transform="matrix(0.000000000000001283, 20.953906, -20.95661, 0.000000000000001283, 205.081235, 75.213416)" fill="none" stroke-linejoin="miter" d="M 0.0000681194 -0.000037991 L 4.322428 -0.000037991 " stroke="#ffffff" stroke-width="1" stroke-opacity="1" stroke-miterlimit="4"/><g clip-path="url(#id2)"><path stroke-linecap="butt" transform="matrix(21.003645, -0.498425, 0.497169, 20.950712, 75.683915, 118.629787)" fill="none" stroke-linejoin="miter" d="M -0.0000143148 -0.0000423697 L 2.209238 -0.000062182 " stroke="#ffffff" stroke-width="1" stroke-opacity="1" stroke-miterlimit="4"/></g><g clip-path="url(#id3)"><path stroke-linecap="butt" transform="matrix(21.003645, -0.498425, 0.497169, 20.950712, 169.031199, 118.629787)" fill="none" stroke-linejoin="miter" d="M 0.00000339772 -0.0000419483 L 2.209256 -0.0000617606 " stroke="#ffffff" stroke-width="1" stroke-opacity="1" stroke-miterlimit="4"/></g></svg>